<?xml version="1.0" standalone="no"?>
<!DOCTYPE svg PUBLIC "-//W3C//DTD SVG 1.1//EN" "http://www.w3.org/Graphics/SVG/1.1/DTD/svg11.dtd" >
<svg xmlns="http://www.w3.org/2000/svg">
<metadata>Generated by IcoMoon</metadata>
<defs>
<font id="aolcore-icons" horiz-adv-x="1024">
<font-face units-per-em="1024" ascent="960" descent="-64" />
<missing-glyph horiz-adv-x="1024" />
<glyph unicode="&#x20;" horiz-adv-x="512" d="" />
<glyph unicode="&#xe600;" glyph-name="uniE600" d="M454.007 259.4c0-31.054 25.264-56.32 56.32-56.32 31.054 0 56.32 25.266 56.32 56.32s-25.266 56.32-56.32 56.32c-31.056 0-56.32-25.266-56.32-56.32zM479.232 529.92v-155.648c0-16.966 13.754-30.72 30.72-30.72s30.72 13.754 30.72 30.72v155.648c0 16.966-13.754 30.72-30.72 30.72s-30.72-13.754-30.72-30.72zM912.357 141.099l-375.429 650.271c-5.489 9.505-15.628 15.36-26.604 15.36s-21.117-5.855-26.604-15.36l-376.193-651.594c-5.489-9.505-5.489-21.215 0-30.72 5.487-9.505 15.628-15.36 26.604-15.36h752.386c0.012 0 0.029 0 0.041 0 16.968 0 30.72 13.754 30.72 30.72 0 6.152-1.808 11.88-4.921 16.683zM187.341 155.136l322.984 559.434 322.986-559.434h-645.97z" />
<glyph unicode="&#xe601;" glyph-name="uniE601" d="M866.304 613.888h-710.656c-33.931 0-61.44 27.509-61.44 61.44s27.509 61.44 61.44 61.44h710.656c33.931 0 61.44-27.509 61.44-61.44s-27.509-61.44-61.44-61.44zM866.304 386.56h-710.656c-33.931 0-61.44 27.509-61.44 61.44s27.509 61.44 61.44 61.44h710.656c33.931 0 61.44-27.509 61.44-61.44s-27.509-61.44-61.44-61.44zM866.304 159.232h-710.656c-33.931 0-61.44 27.509-61.44 61.44s27.509 61.44 61.44 61.44h710.656c33.931 0 61.44-27.509 61.44-61.44s-27.509-61.44-61.44-61.44z" />
<glyph unicode="&#xe602;" glyph-name="uniE602" d="M706.116 39.27c-86.766 0-245.201 53.828-406.149 205.529-79.399 74.838-136.149 157.233-168.686 244.898-33.1 89.188-29.448 152.58-26.341 175.694 0.647 4.827 2.435 9.431 5.214 13.431 9.933 14.303 45.464 64.371 85.672 108.087 45.275 49.228 78.103 71.18 106.437 71.18 1.122 0 2.247-0.037 3.34-0.104 0.434-0.027 0.868-0.063 1.3-0.109 40.833-4.305 79.63-38.068 118.604-103.221 26.044-43.536 42.529-85.539 43.217-87.304 2.163-5.544 2.669-11.594 1.456-17.418-5.892-28.322-26.7-48.47-46.823-67.955-18.565-17.975-36.1-34.953-36.256-53.148-0.141-16.775 13.531-39.416 39.545-65.473l85.567-85.713c28.398-28.447 53.178-42.871 73.65-42.871 21.617 0 41.284 16.23 62.106 33.411 19.638 16.206 39.944 32.965 65.227 38.238 5.845 1.214 11.911 0.711 17.467-1.464 1.763-0.69 43.702-17.205 87.167-43.299 65.036-39.039 98.738-77.881 103.035-118.751 0.043-0.432 0.082-0.864 0.109-1.298 1.8-28.822-19.694-62.355-69.693-108.73-43.901-40.716-94.644-76.861-109.152-86.97-4.006-2.791-8.618-4.588-13.455-5.241-6.926-0.928-14.512-1.399-22.557-1.399zM165.046 650.115c-6.144-69.728 24.33-216.646 177.060-360.606 158.122-149.035 303.21-188.801 364.009-188.801 2.597 0 5.077 0.068 7.424 0.205 97.657 68.993 142.692 122.444 145.988 137.191-3.32 18.852-30.497 45.177-73.322 70.881-27.073 16.251-53.842 28.51-67.873 34.564-9.316-4.639-20.435-13.812-31.267-22.749-25.625-21.146-57.516-47.464-101.21-47.464-37.906 0-76.22 19.923-117.129 60.901l-85.567 85.713c-38.986 39.051-57.795 74.838-57.502 109.4 0.375 43.919 30.638 73.222 54.954 96.768 10.512 10.177 21.301 20.625 26.497 29.397-6.177 14.316-18.528 41.286-34.716 68.243-25.51 42.486-51.612 69.458-70.298 72.784-14.764-3.363-68.18-48.574-137.048-146.428z" />
<glyph unicode="&#xe603;" glyph-name="uniE603" d="M704.518 38.4c-7.963 0-15.788 3.097-21.66 8.929l-197.102 195.871h-188.797c-107.28 0-194.56 87.28-194.56 194.56v225.28c0 107.28 87.28 194.56 194.56 194.56h430.080c107.28 0 194.56-87.28 194.56-194.56v-225.28c0-104.538-82.87-190.081-186.368-194.39v-174.25c0-12.409-7.465-23.597-18.919-28.365-3.813-1.585-7.821-2.355-11.794-2.355zM296.96 796.16c-73.402 0-133.12-59.718-133.12-133.12v-225.28c0-73.402 59.718-133.12 133.12-133.12h201.464c8.114 0 15.899-3.209 21.654-8.929l153.715-152.752v130.961c0 16.966 13.754 30.72 30.72 30.72h22.528c73.402 0 133.12 59.718 133.12 133.12v225.28c0 73.402-59.718 133.12-133.12 133.12h-430.080z" />
<glyph unicode="&#xe604;" glyph-name="uniE604" d="M876.544 386.56h-710.656c-33.931 0-61.44 27.509-61.44 61.44s27.509 61.44 61.44 61.44h710.656c33.931 0 61.44-27.509 61.44-61.44s-27.509-61.44-61.44-61.44z" />
<glyph unicode="&#xe605;" glyph-name="uniE605" d="M624.64 413.184h-243.712c-16.966 0-30.72 13.754-30.72 30.72s13.754 30.72 30.72 30.72h243.712c16.966 0 30.72-13.754 30.72-30.72s-13.754-30.72-30.72-30.72zM536.078 289.288c-8.161 0-16.306 3.232-22.35 9.638-11.645 12.339-11.078 31.783 1.262 43.426l110.883 104.624-110.883 104.624c-12.339 11.645-12.906 31.087-1.262 43.428 11.645 12.339 31.085 12.906 43.426 1.262l134.564-126.968c6.152-5.804 9.638-13.887 9.638-22.344s-3.486-16.54-9.638-22.344l-134.564-126.968c-5.935-5.603-13.515-8.378-21.076-8.378z" />
<glyph unicode="&#xe606;" glyph-name="uniE606" d="M737.26 168.419c-13.844 0-26.411 9.423-29.825 23.472-4.008 16.486 6.107 33.1 22.594 37.106 82.076 19.954 139.399 92.969 139.397 177.562 0 100.753-81.969 182.725-182.727 182.725-18.016 0-35.83-2.623-52.945-7.797-13.623-4.114-28.293 1.661-35.449 13.969-40.374 69.466-115.304 112.62-195.547 112.62-124.623 0-226.007-101.386-226.007-226.007 0-91.048 54.182-172.796 138.033-208.259 15.626-6.611 22.936-24.633 16.329-40.26-6.611-15.628-24.633-22.936-40.26-16.329-106.637 45.101-175.542 149.060-175.542 264.847 0 158.499 128.948 287.447 287.447 287.447 94.235 0 182.702-46.787 236.118-123.492 15.694 3.123 31.701 4.7 47.823 4.7 134.633 0 244.167-109.531 244.167-244.165 0.002-55.034-18.846-109.013-53.070-151.988-33.675-42.287-81-72.573-133.255-85.275-2.437-0.592-4.88-0.877-7.281-0.877zM532.48 208.384c-16.966 0-30.72 13.754-30.72 30.72v258.048c0 16.966 13.754 30.72 30.72 30.72s30.72-13.754 30.72-30.72v-258.048c0-16.966-13.754-30.72-30.72-30.72zM534.444 163.267c-8.456 0-16.54 3.486-22.344 9.638l-126.968 134.562c-11.645 12.339-11.078 31.783 1.262 43.426s31.785 11.078 43.426-1.262l104.624-110.883 104.624 110.883c11.645 12.337 31.085 12.904 43.426 1.262 12.339-11.645 12.906-31.087 1.262-43.426l-126.968-134.562c-5.804-6.152-13.887-9.638-22.344-9.638z" />
<glyph unicode="&#xe607;" glyph-name="uniE607" d="M921.461 747.756c-0.029 0.299-0.066 0.594-0.102 0.889-0.076 0.639-0.174 1.27-0.291 1.896-0.055 0.313-0.109 0.629-0.176 0.938-0.18 0.829-0.385 1.649-0.633 2.454-0.082 0.27-0.184 0.53-0.272 0.797-0.201 0.59-0.408 1.174-0.641 1.749-0.137 0.342-0.287 0.678-0.436 1.014-0.225 0.508-0.469 1.004-0.723 1.497-0.152 0.299-0.299 0.6-0.465 0.893-0.414 0.743-0.85 1.473-1.323 2.179-0.096 0.143-0.205 0.276-0.301 0.418-0.414 0.598-0.85 1.18-1.307 1.747-0.174 0.215-0.354 0.426-0.535 0.637-0.428 0.504-0.872 0.991-1.333 1.466-0.168 0.176-0.336 0.354-0.508 0.524-1.262 1.241-2.634 2.378-4.108 3.394-0.246 0.17-0.5 0.328-0.75 0.489-0.494 0.319-0.997 0.627-1.511 0.918-0.305 0.174-0.612 0.346-0.924 0.512-0.512 0.268-1.038 0.516-1.571 0.758-0.299 0.135-0.588 0.283-0.891 0.408-0.010 0.004-0.018 0.008-0.027 0.012-0.772 0.319-1.552 0.6-2.337 0.854-0.334 0.106-0.674 0.195-1.012 0.291-0.555 0.158-1.112 0.303-1.671 0.43-0.336 0.076-0.674 0.147-1.014 0.213-0.711 0.133-1.421 0.242-2.136 0.326-0.186 0.020-0.367 0.055-0.555 0.074-0.922 0.090-1.843 0.131-2.767 0.139-0.090 0-0.176 0.014-0.266 0.014h-757.756c-0.088 0-0.174-0.012-0.262-0.012-0.922-0.008-1.845-0.049-2.769-0.139-0.19-0.018-0.375-0.053-0.561-0.076-0.711-0.084-1.419-0.19-2.126-0.324-0.342-0.066-0.682-0.137-1.022-0.213-0.555-0.125-1.11-0.27-1.663-0.428-0.34-0.096-0.684-0.184-1.020-0.293-0.784-0.254-1.565-0.532-2.335-0.852-0.008-0.004-0.016-0.008-0.027-0.012-0.301-0.127-0.592-0.272-0.891-0.408-0.532-0.242-1.059-0.489-1.571-0.758-0.311-0.164-0.618-0.336-0.924-0.512-0.516-0.293-1.018-0.598-1.511-0.918-0.25-0.164-0.504-0.322-0.75-0.489-1.475-1.016-2.847-2.152-4.108-3.394-0.174-0.17-0.338-0.348-0.508-0.524-0.463-0.475-0.905-0.965-1.333-1.466-0.18-0.211-0.36-0.422-0.535-0.637-0.457-0.565-0.893-1.149-1.307-1.747-0.098-0.141-0.207-0.274-0.301-0.418-0.473-0.707-0.909-1.436-1.323-2.179-0.162-0.293-0.309-0.594-0.465-0.893-0.254-0.494-0.496-0.989-0.723-1.497-0.15-0.336-0.299-0.672-0.436-1.014-0.233-0.575-0.442-1.159-0.641-1.749-0.088-0.266-0.19-0.526-0.272-0.797-0.246-0.805-0.453-1.624-0.633-2.454-0.068-0.309-0.121-0.625-0.176-0.938-0.117-0.627-0.213-1.257-0.291-1.896-0.037-0.297-0.074-0.59-0.102-0.889-0.080-0.928-0.135-1.86-0.135-2.8v-593.92c0-16.966 13.754-30.72 30.72-30.72h757.76c16.966 0 30.72 13.754 30.72 30.72v593.92c0 0.94-0.055 1.872-0.139 2.796zM860.16 181.76h-696.32v489.036l326.439-326.437c11.995-11.995 31.447-11.995 43.444 0l326.437 326.437v-489.036zM207.284 714.24h609.432l-304.716-304.716-304.716 304.716z" />
<glyph unicode="&#xe608;" glyph-name="uniE608" d="M890.88 857.6h-757.76c-0.125 0-0.242-0.016-0.365-0.018-0.887-0.010-1.772-0.047-2.656-0.133-0.5-0.049-0.983-0.139-1.477-0.213-0.5-0.072-0.999-0.129-1.495-0.227-0.545-0.109-1.069-0.256-1.602-0.389-0.438-0.113-0.881-0.209-1.315-0.338-0.516-0.158-1.016-0.35-1.52-0.532-0.442-0.16-0.885-0.303-1.321-0.483-0.469-0.195-0.922-0.422-1.38-0.639-0.451-0.213-0.903-0.412-1.343-0.647-0.44-0.233-0.858-0.502-1.284-0.758-0.434-0.26-0.872-0.504-1.296-0.788-0.471-0.315-0.918-0.666-1.372-1.008-0.346-0.26-0.705-0.502-1.044-0.78-1.567-1.286-3.004-2.724-4.291-4.291-0.291-0.352-0.541-0.725-0.811-1.083-0.33-0.44-0.672-0.87-0.977-1.327-0.297-0.44-0.553-0.897-0.821-1.35-0.242-0.408-0.498-0.807-0.725-1.227-0.248-0.465-0.459-0.94-0.682-1.413-0.205-0.436-0.422-0.864-0.606-1.311-0.193-0.463-0.346-0.934-0.514-1.405-0.172-0.475-0.354-0.946-0.502-1.432-0.141-0.473-0.248-0.956-0.369-1.434-0.125-0.492-0.262-0.981-0.362-1.481-0.113-0.559-0.178-1.122-0.256-1.686-0.061-0.43-0.143-0.85-0.186-1.286-0.096-1.018-0.147-2.036-0.147-3.052v-757.75c0-0.262 0.033-0.516 0.041-0.776 0.014-0.565 0.041-1.13 0.084-1.694 0.041-0.489 0.092-0.975 0.156-1.458 0.061-0.485 0.133-0.969 0.219-1.45 0.094-0.532 0.201-1.059 0.322-1.581 0.1-0.432 0.213-0.862 0.332-1.292 0.15-0.535 0.305-1.063 0.481-1.583 0.143-0.426 0.301-0.846 0.467-1.268 0.19-0.489 0.387-0.979 0.602-1.456 0.203-0.451 0.42-0.893 0.643-1.333 0.215-0.424 0.434-0.846 0.668-1.257 0.268-0.471 0.555-0.934 0.848-1.395 0.233-0.365 0.469-0.725 0.721-1.079 0.324-0.465 0.666-0.915 1.020-1.364 0.266-0.338 0.537-0.67 0.815-0.995 0.358-0.418 0.729-0.823 1.114-1.227 0.328-0.342 0.664-0.676 1.008-1.004 0.362-0.344 0.729-0.684 1.114-1.012 0.418-0.362 0.848-0.709 1.288-1.049 0.211-0.164 0.399-0.344 0.616-0.502 0.176-0.129 0.36-0.238 0.539-0.362 0.315-0.221 0.639-0.436 0.963-0.645 0.469-0.303 0.942-0.59 1.419-0.864 0.313-0.18 0.629-0.362 0.948-0.532 0.584-0.307 1.176-0.586 1.774-0.854 0.231-0.104 0.459-0.219 0.694-0.317 0.85-0.356 1.708-0.67 2.578-0.944 0.186-0.057 0.377-0.102 0.561-0.158 0.713-0.209 1.43-0.395 2.152-0.553 0.274-0.059 0.553-0.111 0.827-0.162 0.692-0.129 1.386-0.236 2.085-0.317 0.248-0.031 0.496-0.063 0.745-0.088 0.95-0.088 1.901-0.143 2.851-0.143 0.012 0 0.025 0 0.037 0h757.748c1.012 0 2.023 0.053 3.031 0.152 0.459 0.045 0.903 0.131 1.358 0.199 0.539 0.076 1.077 0.139 1.61 0.246 0.52 0.102 1.024 0.244 1.536 0.375 0.461 0.117 0.924 0.215 1.38 0.354 0.502 0.152 0.985 0.34 1.477 0.516 0.457 0.164 0.911 0.313 1.36 0.5 0.461 0.19 0.903 0.414 1.352 0.627 0.461 0.217 0.922 0.42 1.372 0.662 0.432 0.231 0.844 0.496 1.264 0.748 0.44 0.262 0.887 0.51 1.315 0.797 0.469 0.313 0.909 0.662 1.358 0.999 0.352 0.264 0.715 0.508 1.057 0.788 1.569 1.286 3.004 2.724 4.291 4.293 0.291 0.35 0.541 0.723 0.811 1.083 0.33 0.438 0.672 0.868 0.977 1.325 0.297 0.442 0.553 0.897 0.821 1.35 0.242 0.408 0.498 0.807 0.725 1.227 0.248 0.465 0.459 0.94 0.682 1.413 0.205 0.436 0.422 0.864 0.606 1.311 0.193 0.463 0.346 0.934 0.514 1.405 0.172 0.475 0.354 0.946 0.502 1.432 0.141 0.473 0.248 0.956 0.369 1.434 0.125 0.492 0.262 0.981 0.362 1.481 0.113 0.559 0.178 1.124 0.256 1.686 0.061 0.43 0.143 0.85 0.186 1.286 0.102 1.012 0.154 2.030 0.154 3.045v757.746c-0.004 16.966-13.758 30.72-30.724 30.72zM163.84 752.716l116.357-116.357c-7.52-13.349-11.829-28.744-11.829-45.156 0-50.885 41.269-92.158 92.16-92.158 16.409 0 31.805 4.309 45.152 11.831l129.247-129.247-35.695-79.55-129.274 91.156c-13.691 9.652-32.584 6.56-42.482-6.947l-163.637-223.281v589.709zM193.72 99.84l165.485 225.8 135.092-95.259c7.502-5.288 16.972-6.949 25.821-4.522s16.155 8.679 19.911 17.052l41.384 92.232 235.303-235.303h-622.995zM860.16 143.284l-251.836 251.836 66.271 147.704 185.565-162.032v-237.509zM860.16 462.361l-176.402 154.032c-7.332 6.404-17.265 8.952-26.778 6.869-9.511-2.083-17.469-8.55-21.457-17.433l-73.685-164.223-115.642 115.64c4.172 10.512 6.49 21.963 6.49 33.956 0 50.901-41.267 92.162-92.16 92.162-11.995 0-23.446-2.318-33.96-6.49l-119.282 119.286h652.876v-333.799z" />
<glyph unicode="&#xe609;" glyph-name="uniE609" d="M890.88 857.6h-757.76c-16.966 0-30.72-13.754-30.72-30.72v-757.76c0-0.262 0.033-0.516 0.041-0.776 0.014-0.565 0.041-1.13 0.084-1.694 0.041-0.489 0.092-0.975 0.156-1.458 0.061-0.485 0.133-0.969 0.219-1.45 0.094-0.532 0.201-1.059 0.322-1.581 0.1-0.432 0.213-0.862 0.332-1.292 0.15-0.535 0.305-1.063 0.481-1.583 0.143-0.426 0.301-0.846 0.467-1.268 0.19-0.489 0.387-0.979 0.602-1.456 0.203-0.451 0.42-0.893 0.643-1.333 0.215-0.424 0.434-0.846 0.668-1.257 0.268-0.471 0.555-0.934 0.848-1.395 0.233-0.365 0.469-0.725 0.721-1.079 0.324-0.465 0.666-0.915 1.020-1.364 0.266-0.338 0.537-0.67 0.815-0.995 0.358-0.418 0.729-0.823 1.114-1.227 0.328-0.342 0.664-0.676 1.008-1.004 0.362-0.344 0.729-0.684 1.114-1.012 0.418-0.362 0.848-0.709 1.288-1.049 0.211-0.164 0.399-0.344 0.616-0.502 0.176-0.129 0.36-0.238 0.539-0.362 0.315-0.221 0.639-0.436 0.963-0.645 0.469-0.303 0.942-0.59 1.419-0.864 0.313-0.18 0.629-0.362 0.948-0.532 0.584-0.307 1.176-0.586 1.774-0.854 0.231-0.104 0.459-0.219 0.694-0.317 0.85-0.356 1.708-0.67 2.578-0.944 0.186-0.057 0.377-0.102 0.561-0.158 0.713-0.209 1.43-0.395 2.152-0.553 0.274-0.059 0.553-0.111 0.827-0.162 0.692-0.129 1.386-0.236 2.085-0.317 0.248-0.031 0.496-0.063 0.745-0.088 0.95-0.088 1.901-0.143 2.851-0.143 0.012 0 0.025 0 0.037 0h757.748c16.966 0 30.72 13.754 30.72 30.72v757.756c0 16.966-13.754 30.72-30.72 30.72zM860.16 99.84h-666.44l165.485 225.8 135.092-95.259c7.502-5.288 16.972-6.949 25.821-4.522s16.155 8.679 19.911 17.052l134.568 299.911 185.563-162.030v-280.953zM860.16 462.361l-176.402 154.032c-7.332 6.404-17.267 8.952-26.778 6.869s-17.469-8.55-21.457-17.433l-136.29-303.749-129.274 91.156c-13.689 9.652-32.584 6.56-42.482-6.947l-163.637-223.283v633.154h696.32v-333.799zM360.528 499.044c50.893 0 92.16 41.273 92.16 92.158 0 50.901-41.267 92.162-92.16 92.162-50.891 0-92.16-41.261-92.16-92.162 0-50.885 41.269-92.158 92.16-92.158z" />
<glyph unicode="&#xe60a;" glyph-name="uniE60A" d="M518.144 32.256c-33.931 0-61.44 27.509-61.44 61.44v710.656c0 33.931 27.509 61.44 61.44 61.44s61.44-27.509 61.44-61.44v-710.656c0-33.931-27.509-61.44-61.44-61.44zM876.544 386.56h-710.656c-33.931 0-61.44 27.509-61.44 61.44s27.509 61.44 61.44 61.44h710.656c33.931 0 61.44-27.509 61.44-61.44s-27.509-61.44-61.44-61.44z" />
<glyph unicode="&#xe60b;" glyph-name="uniE60B" d="M802.388 248.916l-246.936 198.617 248.035 183.251c13.3 10.564 15.503 29.899 4.927 43.18-10.576 13.285-29.929 15.487-43.223 4.921l-278.442-207.321c-7.358-5.845-11.635-14.641-11.614-24.029 0.020-9.39 4.334-18.342 11.721-24.154l277.445-222.73c5.64-4.444 12.356-6.603 19.026-6.603 9.095 0.002 18.108 4.016 24.177 11.71 10.516 13.326 8.229 32.651-5.116 43.158zM517.716 248.916l-246.936 198.617 248.035 183.251c13.3 10.564 15.503 29.899 4.927 43.18-10.576 13.285-29.929 15.487-43.223 4.921l-278.442-207.321c-7.358-5.845-11.635-14.641-11.614-24.029 0.020-9.39 4.334-18.342 11.721-24.154l277.445-222.73c5.64-4.444 12.356-6.603 19.026-6.603 9.095 0.002 18.108 4.016 24.177 11.71 10.516 13.326 8.229 32.651-5.116 43.158z" />
<glyph unicode="&#xe60c;" glyph-name="uniE60C" d="M591.872 447.533c0.020 9.388-4.256 18.186-11.614 24.029l-278.442 207.323c-13.294 10.566-32.647 8.364-43.223-4.921-10.576-13.281-8.372-32.616 4.927-43.18l248.035-183.251-246.936-198.617c-13.345-10.506-15.632-29.831-5.114-43.158 6.068-7.694 15.079-11.708 24.177-11.71 6.67 0 13.386 2.159 19.026 6.603l277.445 222.73c7.385 5.81 11.698 14.764 11.719 24.152zM864.93 471.564l-278.442 207.321c-13.294 10.566-32.647 8.364-43.223-4.921-10.576-13.281-8.372-32.616 4.927-43.18l248.035-183.251-246.936-198.617c-13.345-10.506-15.632-29.831-5.114-43.158 6.068-7.694 15.079-11.708 24.177-11.71 6.67 0 13.386 2.159 19.026 6.603l277.445 222.73c7.385 5.812 11.7 14.764 11.721 24.154 0.018 9.386-4.258 18.184-11.616 24.029z" />
<glyph unicode="&#xe60d;" glyph-name="uniE60D" d="M659.028 248.916l-246.936 198.617 248.035 183.251c13.3 10.564 15.503 29.899 4.927 43.18-10.576 13.285-29.929 15.487-43.223 4.921l-278.442-207.321c-7.358-5.845-11.635-14.641-11.614-24.029 0.020-9.39 4.334-18.342 11.721-24.154l277.445-222.73c5.64-4.444 12.356-6.603 19.026-6.603 9.095 0.002 18.108 4.016 24.177 11.71 10.516 13.326 8.229 32.651-5.116 43.158z" />
<glyph unicode="&#xe60e;" glyph-name="uniE60E" d="M385.452 248.916l246.936 198.617-248.035 183.251c-13.3 10.564-15.503 29.899-4.927 43.18 10.576 13.285 29.929 15.487 43.223 4.921l278.442-207.321c7.358-5.845 11.635-14.641 11.614-24.029-0.020-9.39-4.334-18.342-11.721-24.154l-277.443-222.73c-5.64-4.444-12.356-6.603-19.026-6.603-9.095 0.002-18.108 4.016-24.177 11.71-10.519 13.326-8.231 32.651 5.114 43.158z" />
<glyph unicode="&#xe60f;" glyph-name="uniE60F" d="M278.678 39.582c-6.138 0-12.282 1.835-17.57 5.521-10.961 7.643-15.722 21.494-11.78 34.261l82.942 268.603-216.676 165.745c-10.459 8.002-14.658 21.778-10.433 34.253 4.225 12.472 15.927 20.867 29.098 20.867h266.183l82.565 267.151c3.977 12.872 15.878 21.649 29.35 21.649s25.373-8.778 29.35-21.649l82.565-267.151h266.183c13.169 0 24.873-8.393 29.098-20.867 4.223-12.472 0.029-26.251-10.43-34.253l-216.672-165.759 82.938-268.478c3.944-12.765-0.815-26.618-11.774-34.261-10.957-7.645-25.6-7.334-36.221 0.778l-215.030 164.18-215.034-164.282c-5.495-4.198-12.069-6.308-18.651-6.308zM224.981 507.392l161.622-123.63c10.22-7.815 14.483-21.172 10.689-33.464l-60.91-197.253 157.325 120.193c11.008 8.407 26.282 8.411 37.292 0.004l157.334-120.127-60.905 197.163c-3.797 12.294 0.467 25.649 10.684 33.468l161.628 123.646h-198.128c-13.472 0-25.373 8.778-29.35 21.649l-59.906 193.835-59.906-193.835c-3.979-12.872-15.878-21.649-29.35-21.649h-198.119z" />
<glyph unicode="&#xe610;" glyph-name="uniE610" d="M890.88 753.152h-51.2v75.776c0 16.966-13.754 30.72-30.72 30.72h-593.92c-16.966 0-30.72-13.754-30.72-30.72v-75.776h-51.2c-16.966 0-30.72-13.754-30.72-30.72v-430.080c0-16.966 13.754-30.72 30.72-30.72h133.12v-190.464c0-16.966 13.754-30.72 30.72-30.72h430.080c16.966 0 30.72 13.754 30.72 30.72v190.464h133.12c16.966 0 30.72 13.754 30.72 30.72v430.080c0 16.966-13.754 30.72-30.72 30.72zM245.76 798.208h532.48v-45.056h-532.48v45.056zM696.32 101.888h-368.64v409.6h368.64v-409.6zM860.16 323.072h-102.4v219.136c0 16.966-13.754 30.72-30.72 30.72h-430.080c-16.966 0-30.72-13.754-30.72-30.72v-219.136h-102.4v368.64h696.32v-368.64z" />
<glyph unicode="&#xe611;" glyph-name="uniE611" d="M446.464 482.816h-313.344c-16.966 0-30.72 13.754-30.72 30.72v313.344c0 16.966 13.754 30.72 30.72 30.72h313.344c16.966 0 30.72-13.754 30.72-30.72v-313.344c0-16.966-13.754-30.72-30.72-30.72zM163.84 544.256h251.904v251.904h-251.904v-251.904zM890.88 482.816h-313.344c-16.966 0-30.72 13.754-30.72 30.72v313.344c0 16.966 13.754 30.72 30.72 30.72h313.344c16.966 0 30.72-13.754 30.72-30.72v-313.344c0-16.966-13.754-30.72-30.72-30.72zM608.256 544.256h251.904v251.904h-251.904v-251.904zM446.464 38.4h-313.344c-16.966 0-30.72 13.754-30.72 30.72v313.344c0 16.966 13.754 30.72 30.72 30.72h313.344c16.966 0 30.72-13.754 30.72-30.72v-313.344c0-16.966-13.754-30.72-30.72-30.72zM163.84 99.84h251.904v251.904h-251.904v-251.904zM890.88 38.4h-313.344c-16.966 0-30.72 13.754-30.72 30.72v313.344c0 16.966 13.754 30.72 30.72 30.72h313.344c16.966 0 30.72-13.754 30.72-30.72v-313.344c0-16.966-13.754-30.72-30.72-30.72zM608.256 99.84h251.904v251.904h-251.904v-251.904z" />
<glyph unicode="&#xe612;" glyph-name="uniE612" d="M464.896 134.656c-198.752 0-360.448 161.696-360.448 360.448s161.696 360.448 360.448 360.448 360.448-161.698 360.448-360.448-161.696-360.448-360.448-360.448zM464.896 794.112c-164.874 0-299.008-134.136-299.008-299.008s134.134-299.008 299.008-299.008 299.008 134.134 299.008 299.008-134.134 299.008-299.008 299.008zM866.304 38.4c-14.152 0-28.301 5.399-39.1 16.196l-144.447 144.447c-21.594 21.594-21.594 56.607 0 78.201 21.592 21.596 56.605 21.596 78.201 0l144.447-144.447c21.594-21.594 21.594-56.607 0-78.201-10.797-10.797-24.949-16.196-39.1-16.196z" />
<glyph unicode="&#xe613;" glyph-name="uniE613" d="M743.504 306.532c-25 0-47.661-9.972-64.266-26.139l-315.396 159.709c0.498 3.879 0.782 7.821 0.782 11.833 0 3.711-0.244 7.367-0.672 10.963l315.72 156.080c16.564-15.919 39.047-25.727 63.832-25.727 50.893 0 92.16 41.273 92.16 92.158 0 50.901-41.267 92.162-92.16 92.162-50.891 0-92.16-41.261-92.16-92.162 0-3.908 0.272-7.75 0.743-11.53l-315.369-155.906c-16.601 16.159-39.26 26.126-64.254 26.126-50.891 0-92.16-41.261-92.16-92.162 0-50.883 41.269-92.158 92.16-92.158 24.674 0 47.067 9.722 63.613 25.518l315.937-159.984c-0.424-3.592-0.668-7.238-0.668-10.945 0-50.885 41.269-92.158 92.16-92.158 50.893 0 92.16 41.273 92.16 92.158-0.002 50.899-41.269 92.162-92.162 92.162z" />
<glyph unicode="&#xe614;" glyph-name="uniE614" d="M424.129 37.433c-3.549 0-7.139 0.618-10.625 1.903-13.486 4.975-21.721 18.639-19.818 32.887l43.919 329.030-135.307-7.354c-9.071-0.506-17.885 3.052-24.093 9.679-6.205 6.627-9.161 15.663-8.071 24.678l48.568 402.307c1.862 15.43 14.957 27.038 30.499 27.038h274.522c9.978 0 19.335-4.848 25.092-12.999 5.759-8.149 7.197-18.59 3.86-27.994l-74.852-210.973 179.286 11.047c11.553 0.723 22.557-5.147 28.408-15.153s5.573-22.454-0.723-32.188l-334.86-517.861c-5.79-8.956-15.614-14.045-25.805-14.045zM472.963 464.658c8.538 0 16.724-3.559 22.555-9.865 6.21-6.715 9.103-15.852 7.893-24.918l-30.706-230.025 227.465 351.764-164.946-10.162c-10.314-0.635-20.22 3.94-26.425 12.175-6.205 8.237-7.864 19.038-4.415 28.758l75.842 213.774h-203.792l-40.917-338.928 135.776 7.381c0.559 0.029 1.116 0.045 1.671 0.045z" />
<glyph unicode="&#xe615;" glyph-name="uniE615" d="M512 855.552c-224.725 0-407.552-182.827-407.552-407.552s182.827-407.552 407.552-407.552 407.552 182.827 407.552 407.552c0 224.725-182.827 407.552-407.552 407.552zM512 101.888c-190.847 0-346.112 155.265-346.112 346.112s155.265 346.112 346.112 346.112 346.112-155.265 346.112-346.112c0-190.847-155.265-346.112-346.112-346.112zM725.209 440.478c-16.202 5.020-33.413-4.047-38.435-20.255-11.307-36.497-34.484-69.288-65.262-92.332-31.793-23.804-69.665-36.387-109.515-36.387-39.852 0-77.722 12.583-109.519 36.389-30.775 23.044-53.955 55.837-65.26 92.336-5.020 16.208-22.229 25.281-38.435 20.255-16.206-5.020-25.274-22.229-20.255-38.435 15.11-48.783 46.051-92.586 87.124-123.339 42.506-31.824 93.11-48.646 146.342-48.646 53.23 0 103.832 16.82 146.338 48.644 41.073 30.751 72.014 74.551 87.126 123.335 5.024 16.208-4.043 33.415-20.251 38.435zM613.738 497.992c31.054 0 56.32 25.264 56.32 56.32s-25.266 56.32-56.32 56.32-56.32-25.264-56.32-56.32 25.266-56.32 56.32-56.32zM408.938 497.992c31.054 0 56.32 25.264 56.32 56.32s-25.266 56.32-56.32 56.32-56.32-25.264-56.32-56.32 25.266-56.32 56.32-56.32z" />
<glyph unicode="&#xe616;" glyph-name="uniE616" d="M890.88 857.6h-757.76c-16.966 0-30.72-13.754-30.72-30.72v-757.76c0-16.966 13.754-30.72 30.72-30.72h757.76c16.964 0 30.72 13.754 30.72 30.72v757.76c0 16.966-13.756 30.72-30.72 30.72zM860.16 99.84h-696.32v696.32h696.32v-696.32zM321.307 244.068c4.401-2.195 9.079-3.234 13.685-3.234 11.28 0 22.141 6.236 27.517 17.019l46.825 93.907c0.090-0.002 0.178-0.014 0.268-0.014h200.704c1.432 0 2.828 0.131 4.209 0.322l46.979-94.214c7.571-15.184 26.020-21.357 41.2-13.783 15.184 7.571 21.354 26.018 13.783 41.2l-176.984 354.929c-5.198 10.424-15.843 17.013-27.492 17.013s-22.295-6.588-27.492-17.013l-176.986-354.929c-7.569-15.184-1.399-33.63 13.785-41.202zM512 557.648l72.036-144.464h-144.075l72.038 144.464z" />
<glyph unicode="&#xe617;" glyph-name="uniE617" d="M155.648 413.561v-299.385h212.84c0 0 62.804-53.248 164.104-53.248s208.677 0 208.677 0 77.662 15.245 45.246 96.287c0 0 82.391 39.029 28.365 114.663 0 0 71.586 49.906 2.703 109.335 0 0 51.325 8.372 51.325 61.36s-51.327 52.531-51.327 52.531h-214.079c0 0-22.286 35.201 18.233 75.721 40.52 40.516 33.765 101.003 28.365 141.525-5.405 40.52-16.208 121.412-79.69 110.604-63.48-10.805-7.113-69.632-77.842-179.036-70.73-109.402-42.084-22.657-163.643-229.308l-173.277-1.049z" />
<glyph unicode="&#xe618;" glyph-name="uniE618" d="M866.304 509.44h-565.4l154.35 154.35c23.994 23.994 23.994 62.897 0 86.888-23.992 23.994-62.895 23.994-86.888 0l-256.324-256.322c-12.22-12.22-18.203-28.31-17.973-44.327-0.045-3.367 0.177-6.734 0.68-10.068 2.223-17.013 11.397-31.834 24.59-41.515l249.025-249.027c23.996-23.996 62.895-23.996 86.89 0 23.994 23.992 23.994 62.895 0 86.888l-150.249 150.252h561.299c33.931 0 61.44 27.509 61.44 61.44s-27.509 61.44-61.44 61.44z" />
<glyph unicode="&#xe619;" glyph-name="uniE619" d="M512 40.448c-224.725 0-407.552 182.827-407.552 407.552s182.827 407.552 407.552 407.552 407.552-182.827 407.552-407.552-182.827-407.552-407.552-407.552zM512 794.112c-190.847 0-346.112-155.265-346.112-346.112s155.265-346.112 346.112-346.112 346.112 155.265 346.112 346.112-155.265 346.112-346.112 346.112zM487.424 394.752c-16.966 0-30.72 13.754-30.72 30.72v217.088c0 16.966 13.754 30.72 30.72 30.72s30.72-13.754 30.72-30.72v-217.088c0-16.966-13.754-30.72-30.72-30.72zM704.512 394.752h-217.088c-16.966 0-30.72 13.754-30.72 30.72s13.754 30.72 30.72 30.72h217.088c16.966 0 30.72-13.754 30.72-30.72s-13.754-30.72-30.72-30.72z" />
<glyph unicode="&#xe61a;" glyph-name="uniE61A" d="M792.576 167.424h-540.672c-16.966 0-30.72 13.754-30.72 30.72v540.672c0 16.966 13.754 30.72 30.72 30.72h540.672c16.966 0 30.72-13.754 30.72-30.72v-540.672c0-16.966-13.754-30.72-30.72-30.72zM282.624 228.864h479.232v479.232h-479.232v-479.232zM528.384 292.352c-16.966 0-30.72 13.754-30.72 30.72v243.712c0 16.966 13.754 30.72 30.72 30.72s30.72-13.754 30.72-30.72v-243.712c0-16.966-13.754-30.72-30.72-30.72zM653.226 446.558c-8.161 0-16.306 3.232-22.35 9.638l-104.624 110.883-104.624-110.883c-11.647-12.337-31.085-12.904-43.426-1.262-12.339 11.645-12.906 31.087-1.262 43.428l126.968 134.562c5.804 6.15 13.887 9.638 22.344 9.638s16.54-3.486 22.344-9.638l126.968-134.562c11.645-12.339 11.078-31.783-1.262-43.428-5.933-5.601-13.515-8.376-21.076-8.376z" />
<glyph unicode="&#xe61b;" glyph-name="uniE61B" horiz-adv-x="928" d="M210.937 409.866l379.866-300.209c12.694-10.029 30.004-11.918 44.557-4.87s23.806 21.806 23.806 37.981v601.769c0 16.194-9.269 30.957-23.848 37.997-5.836 2.817-12.111 4.199-18.345 4.199-9.354 0-18.635-3.105-26.243-9.149l-379.866-301.56c-10.097-8.017-15.978-20.206-15.961-33.097s5.919-25.070 16.035-33.060z" />
<glyph unicode="&#xe61c;" glyph-name="uniE61C" d="M312.916 590.548l198.617-246.936 183.251 248.035c10.564 13.3 29.899 15.503 43.18 4.927 13.285-10.576 15.487-29.929 4.921-43.223l-207.321-278.442c-5.845-7.358-14.641-11.635-24.029-11.614-9.39 0.020-18.342 4.334-24.154 11.721l-222.73 277.443c-4.444 5.64-6.603 12.356-6.603 19.026 0.002 9.095 4.016 18.108 11.71 24.177 13.326 10.519 32.651 8.231 43.158-5.114z" />
<glyph unicode="&#xe61d;" glyph-name="uniE61D" d="M711.084 305.452l-198.617 246.936-183.251-248.035c-10.564-13.3-29.899-15.503-43.18-4.927-13.285 10.576-15.487 29.929-4.921 43.223l207.321 278.442c5.845 7.358 14.641 11.635 24.029 11.614 9.39-0.020 18.342-4.334 24.154-11.721l222.73-277.443c4.444-5.64 6.603-12.356 6.603-19.026-0.002-9.095-4.016-18.108-11.71-24.177-13.326-10.519-32.651-8.231-43.158 5.114z" />
<glyph unicode="&#xe61e;" glyph-name="uniE61E" horiz-adv-x="928" d="M717.063 409.866l-379.866-300.209c-12.694-10.029-30.004-11.918-44.557-4.87s-23.806 21.806-23.806 37.981v601.769c0 16.194 9.269 30.957 23.848 37.997 5.836 2.817 12.111 4.199 18.345 4.199 9.354 0 18.635-3.105 26.243-9.149l379.866-301.56c10.097-8.017 15.978-20.206 15.961-33.097s-5.919-25.070-16.035-33.060z" />
<glyph unicode="&#xe61f;" glyph-name="uniE61F" d="M238.146 591.112c3.897 46.5 10.353 102.078 71.008 149.973 62.188 49.105 142.285 59.394 221.174 59.394 82.674 0 282.982-19.378 282.982-193.862v-392.962c0-72.385 3.938-82.674 19.438-105.986h-195.197v61.997c-50.373-37.478-107.223-80.099-206.823-80.099-155.079 0-221.045 111.194-221.045 205.488 0 108.583 86.608 170.672 142.184 193.987 54.284 23.183 182.239 46.496 266.281 61.993v36.209c-2.542 31.001-5.147 82.672-76.227 82.672-87.882 0-99.568-54.276-104.716-78.801h-199.059zM490.215 388.139c-33.63-12.896-85.336-32.299-85.336-84.003 0-32.272 28.459-68.602 74.981-68.602 24.551 0 47.802 9.112 68.51 22.010 65.868 41.415 68.473 103.502 69.775 173.31l-127.93-42.715z" />
<glyph unicode="&#xe620;" glyph-name="uniE620" d="M985.245 734.192c0.532 11.585-6.074 22.241-16.519 27.012-0.051 0.007-0.085 0.007-0.125 0.058-0.727 0.327-1.465 0.622-2.234 0.891-0.125 0.007-0.237 0.091-0.354 0.133-0.16 0.051-0.292 0.117-0.459 0.171l-444.301 141.526c-5.605 1.84-11.595 1.84-17.223 0l-444.345-141.573c-3.774-1.207-7.139-3.161-9.988-5.638-0.007-0.007-0.007-0.007-0.062-0.051-0.677-0.595-1.322-1.209-1.942-1.86-0.16-0.171-0.292-0.347-0.449-0.512-0.397-0.449-0.801-0.891-1.179-1.363-0.274-0.349-0.544-0.722-0.804-1.105-0.221-0.307-0.439-0.605-0.645-0.94-0.274-0.423-0.544-0.854-0.802-1.294-0.171-0.274-0.325-0.58-0.479-0.858-0.182-0.327-0.372-0.635-0.532-0.972-0.075-0.161-0.133-0.327-0.221-0.49-0.085-0.183-0.16-0.378-0.237-0.567-0.827-1.897-1.437-3.84-1.84-5.799-0.007-0.194-0.085-0.378-0.117-0.58-0.103-0.595-0.194-1.184-0.253-1.787-0.007-0.252-0.054-0.499-0.080-0.751-0.007-0.567-0.085-1.137-0.097-1.697-0.004-0.306-0.003-0.605-0.001-0.911 0.001-0.532 0.005-1.053 0.007-1.577 0.003-0.097 0-0.194 0.004-0.287l37.815-529.78c0.706-9.778 6.281-18.471 14.935-23.053l406.262-217.107c0.007-0.007 0.075-0.007 0.11-0.062l0.070-0.007c0.007-0.007 0.091-0.007 0.141-0.062 0.915-0.481 1.871-0.914 2.844-1.299 0.221-0.085 0.449-0.161 0.662-0.241 0.804-0.292 1.635-0.558 2.49-0.775 0.257-0.070 0.512-0.141 0.774-0.195 0.826-0.194 1.654-0.347 2.513-0.459 0.241-0.007 0.499-0.085 0.734-0.11 1.062-0.125 2.147-0.207 3.243-0.207s2.19 0.080 3.266 0.207c0.226 0.007 0.451 0.070 0.677 0.103 0.876 0.125 1.743 0.274 2.597 0.468 0.241 0.058 0.49 0.125 0.727 0.194 0.854 0.222 1.675 0.48 2.49 0.774 0.237 0.085 0.468 0.161 0.707 0.257 0.891 0.349 1.778 0.751 2.625 1.184 0.097 0.051 0.207 0.085 0.307 0.141l0.16 0.085c0.007 0.005 0.007 0.007 0.007 0.007l406.271 217.13c8.655 4.66 14.229 13.313 14.935 23.053l37.815 529.837c0.007 0.241 0.006 0.479 0.007 0.721-0.001 0.007-0.001 0.007-0.001 0.054zM512.55 847.117l368.362-117.292-368.323-180.063-368.234 180.039 368.201 117.323zM100.073 688.305l384.146-187.937v-464.651l-350.864 187.524-33.28 465.077zM540.962 35.714v464.651l384.048 187.798-33.187-464.894-350.864-187.557z" />
<glyph unicode="&#xe621;" glyph-name="uniE621" horiz-adv-x="2599" d="M1402.94 670.586c255.413 0 378.032-201.97 378.032-374.802 0-172.759-122.618-374.783-378.032-374.783-255.467 0-378.14 202.025-378.14 374.783 0 172.85 122.691 374.802 378.14 374.802zM1402.94 117.918c90.989 0 168.122 75.022 168.122 177.865 0 102.934-77.115 177.865-168.122 177.865-91.061 0-168.194-74.932-168.194-177.865 0-102.844 77.133-177.865 168.194-177.865zM1899.747 881h212.723v-940.28h-212.723v940.28zM2376.507 216.865c-78.017 0-141.365-63.24-141.365-141.365 0-77.999 63.348-141.382 141.365-141.382s141.293 63.384 141.293 141.383c0 78.107-63.276 141.365-141.293 141.365zM641.031 871.131h-189.34l-370.472-940.28h251.011l49.564 135.97h326.538l45.792-135.97h253.537l-366.628 940.28zM447.866 257.442l98.513 327.801 98.459-327.801h-196.973z" />
<glyph unicode="&#xe622;" glyph-name="uniE622" horiz-adv-x="2688" d="M720.222 497.703h-453.99v343.563h-171.783v-907.99h171.783v411.050h453.99v-411.050h171.783v907.99h-171.783zM1297.309 576.221c-186.271 0-305.278-152.64-305.278-327.275 0-196.612 140.995-325.971 328.567-325.971 97.012 0 196.612 40.096 257.414 112.545l-95.726 95.726c-29.745-32.339-86.665-71.539-157.813-71.539-89.254 0-160.4 57.638-169.458 149.667h434.635c2.58 12.269 3.878 30.144 3.878 46.956 0.004 174.627-122.875 319.9-296.214 319.9zM1162.784 332.059c7.769 55.217 64.673 109.954 134.532 109.954 68.558 0 119.003-54.735 124.18-109.954h-258.706zM1658.884 853.539h165.647v-920.258h-165.647v920.258zM2289.299 576.221c-71.149 0-133.481-23.286-182.564-63.388v52.358h-165.647v-938.661h171.783v353.366c49.081-38.81 103.824-56.915 167.205-56.915 93.142 0 181.913 41.397 237.538 106.074 49.157 56.915 79.229 134.532 79.229 219.904 0 184.97-136.795 327.267-307.542 327.267zM2263.273 78.202c-63.388 0-119.718 31.043-150.395 77.606v187.558c30.679 46.569 89.598 77.613 154.271 77.613 98.306 0 161.69-81.495 161.69-172.044 0-98.302-71.149-170.739-165.571-170.739z" />
<glyph unicode="&#xe900;" glyph-name="icon_back" d="M876.8 812.8c-198.4 198.4-524.8 198.4-723.2 0s-198.4-524.8 0-723.2c198.4-198.4 524.8-198.4 723.2 0s198.4 518.4 0 723.2zM576 160l-307.2 275.2 294.4 294.4 76.8-76.8-211.2-211.2 217.6-198.4-70.4-83.2z" />
<glyph unicode="&#xe901;" glyph-name="icon_field_secure" d="M802.133 492.373h-20.48v184.32c0 146.773-119.467 266.24-269.653 266.24s-269.653-119.467-269.653-266.24v-184.32h-20.48c-44.373 0-81.92-37.547-81.92-81.92v-368.64c0-44.373 37.547-81.92 81.92-81.92h583.68c44.373 0 81.92 37.547 81.92 81.92v368.64c0 44.373-37.547 81.92-85.333 81.92zM532.48 226.133v-122.88h-40.96v122.88c-23.893 10.24-44.373 30.72-44.373 61.44 0 34.133 27.307 64.853 64.853 64.853s64.853-27.307 64.853-64.853c0-30.72-17.067-51.2-44.373-61.44zM324.267 492.373v184.32c0 102.4 85.333 184.32 187.733 184.32s187.733-81.92 187.733-184.32v-187.733h-375.467z" />
<glyph unicode="&#xe902;" glyph-name="icon_hide" d="M0 448c0-281.6 230.4-512 512-512v0c281.6 0 512 230.4 512 512v0c0 281.6-230.4 512-512 512v0c-281.6 0-512-230.4-512-512zM256 512h512v-128h-512v128z" />
<glyph unicode="&#xe903;" glyph-name="icon_field_question" d="M506.88 883.2c240.64 0 435.2-194.56 435.2-435.2s-194.56-435.2-435.2-435.2-435.2 194.56-435.2 435.2 194.56 435.2 435.2 435.2zM506.88 934.4c-266.24 0-486.4-215.040-486.4-486.4s215.040-486.4 486.4-486.4c266.24 0 486.4 215.040 486.4 486.4s-215.040 486.4-486.4 486.4v0zM460.8 386.56v20.48c0 15.36 0 25.6 10.24 40.96 5.12 10.24 20.48 25.6 40.96 40.96s30.72 25.6 35.84 30.72c5.12 10.24 10.24 15.36 10.24 25.6s-5.12 20.48-10.24 25.6c-10.24 5.12-20.48 10.24-35.84 10.24-25.6 0-56.32-10.24-87.040-25.6l-35.84 56.32c35.84 20.48 81.92 30.72 122.88 30.72 35.84 0 66.56-10.24 87.040-25.6s30.72-35.84 30.72-66.56c0-20.48-5.12-35.84-15.36-51.2s-25.6-30.72-51.2-46.080c-15.36-10.24-25.6-20.48-30.72-25.6s-5.12-15.36-5.12-25.6v-15.36h-66.56zM450.56 294.4c0 15.36 5.12 25.6 10.24 30.72 10.24 5.12 20.48 10.24 35.84 10.24s25.6-5.12 35.84-10.24c10.24-5.12 10.24-20.48 10.24-30.72 0-15.36-5.12-25.6-10.24-30.72-10.24-10.24-20.48-10.24-35.84-10.24s-25.6 5.12-35.84 10.24c-5.12 5.12-10.24 15.36-10.24 30.72z" />
<glyph unicode="&#xe904;" glyph-name="icon_link_download" d="M0 448c0-282.77 229.23-512 512-512v0c282.77 0 512 229.23 512 512v0c0 282.77-229.23 512-512 512v0c-282.77 0-512-229.23-512-512zM384 704h256v-256h128l-256-320-256 320h128z" />
<glyph unicode="&#xe905;" glyph-name="icon_link" d="M876.8 812.8c-198.4 198.4-524.8 198.4-723.2 0s-198.4-524.8 0-723.2c198.4-198.4 524.8-198.4 723.2 0s198.4 518.4 0 723.2zM460.8 166.4l-76.8 76.8 211.2 211.2-217.6 198.4 70.4 83.2 300.8-275.2-288-294.4z" />
<glyph unicode="&#xe906;" glyph-name="icon_field_right" d="M276.48 929.28l558.080-481.28-558.080-481.28z" />
<glyph unicode="&#xe907;" glyph-name="icon_nav_help" horiz-adv-x="677" d="M200.483 303.873v57.555c-0.065 1.986-0.102 4.32-0.102 6.663 0 38.768 10.176 75.159 28.003 106.648 24.296 35.725 56.438 65.722 93.988 87.4 31.601 18.477 57.617 39.149 80.388 62.951 15.016 16.954 24.108 39.206 24.108 63.582 0 0.12 0 0.24-0.001 0.36 0.030 0.635 0.047 1.402 0.047 2.173 0 18.817-10.127 35.269-25.229 44.202-17.988 10.747-39.392 17.025-62.263 17.025-1.802 0-3.594-0.039-5.377-0.116-88.869-5.064-170.853-31.505-241.944-74.224l-93.54 185.985c101.12 60.058 222.877 95.657 352.928 95.925 7.145 0.469 15.401 0.736 23.718 0.736 80.839 0 155.787-25.22 217.406-68.22 51.519-39.161 85.246-101.862 85.246-172.439 0-2.828-0.054-5.644-0.161-8.446 0.092-1.989 0.137-4.801 0.137-7.623 0-50.285-14.33-97.223-39.13-136.953-31.903-45.214-72.88-83.283-120.355-111.589-35.588-21-64.83-43.372-91.147-68.755-10.904-13.004-17.616-30.11-17.616-48.784 0-0.506 0.005-1.011 0.015-1.514l-0.001-32.539zM171.226 64.060c-0.132 2.156-0.207 4.677-0.207 7.216 0 34.628 14.006 65.984 36.662 88.713 25.945 21.432 59.547 34.433 96.187 34.433 3.788 0 7.545-0.139 11.263-0.412 2.694 0.281 6.412 0.425 10.164 0.425 35.746 0 68.448-13.035 93.611-34.611 22.459-22.563 36.465-53.92 36.465-88.547 0-2.538-0.075-5.059-0.224-7.56 0.152-1.813 0.23-4.335 0.23-6.875 0-34.893-14.612-66.374-38.052-88.656-25.542-21.367-58.671-34.312-94.824-34.312-2.768 0-5.517 0.076-8.248 0.226-2.417-0.198-5.685-0.302-8.976-0.302-36.538 0-70.095 12.768-96.451 34.086-23.223 22.031-37.855 53.462-37.855 88.311 0 2.768 0.092 5.514 0.274 8.236z" />
<glyph unicode="&#xe908;" glyph-name="icon_nav_profile" d="M512 960c-282.367-0.233-511.181-229.191-511.181-511.59 0-282.544 229.047-511.59 511.59-511.59 282.399 0 511.357 228.813 511.59 511.158 0 282.792-229.23 512.022-512 512.022zM773.325 107.213c-67.749 65.113-159.956 105.213-261.53 105.213s-193.78-40.1-261.655-105.332c-102.784 79.508-168.425 202.86-168.425 341.545 0 237.527 192.553 430.080 430.080 430.080s430.080-192.553 430.080-430.080c0-138.684-65.642-262.037-167.551-340.684zM696.32 448c0-101.797-82.523-184.32-184.32-184.32s-184.32 82.523-184.32 184.32c0 101.797 82.523 184.32 184.32 184.32s184.32-82.523 184.32-184.32z" />
<glyph unicode="&#xe909;" glyph-name="icon_nav_subscriptions" d="M810.667 746.667v213.333h-810.667v-810.667h213.333v-213.333h810.667v810.667zM85.333 234.667v640h640v-128h-512v-512zM725.333 661.333v-426.667h-426.667v426.667zM938.667 21.333h-640v128h512v512h128z" />
<glyph unicode="&#xe90a;" glyph-name="icon_nav_wallet" horiz-adv-x="1384" d="M1163.823 448c0-42.586-34.523-77.108-77.108-77.108s-77.108 34.523-77.108 77.108c0 42.586 34.523 77.108 77.108 77.108s77.108-34.523 77.108-77.108zM1383.839 705.028c0 141.953-115.075 257.028-257.028 257.028h-871.839c-141.953 0-257.028-115.075-257.028-257.028v-514.056c0-141.953 115.075-257.028 257.028-257.028h873.896c141.953 0 257.028 115.075 257.028 257.028zM1285.141 190.972c0-85.172-69.045-154.217-154.217-154.217h-875.952c-85.172 0-154.217 69.045-154.217 154.217v514.056c0 85.172 69.045 154.217 154.217 154.217h873.896c85.172 0 154.217-69.045 154.217-154.217v-12.851h-222.586c-134.855 0-244.177-109.322-244.177-244.177s109.322-244.177 244.177-244.177h224.129zM1285.141 615.068v-334.137h-224.643c-92.269 0-167.068 74.799-167.068 167.068s74.799 167.068 167.068 167.068z" />
<glyph unicode="&#xe90b;" glyph-name="icon_show" d="M0 448c0-281.6 230.4-512 512-512v0c281.6 0 512 230.4 512 512v0c0 281.6-230.4 512-512 512v0c-281.6 0-512-230.4-512-512zM256 512h192v192h128v-192h192v-128h-192v-192h-128v192h-192v128z" />
<glyph unicode="&#xe90c;" glyph-name="icon_field_dropdown" d="M993.28 647.68l-481.28-558.080-481.28 558.080z" />
<glyph unicode="&#xe90d;" glyph-name="icon_status_cancel" d="M512 960c-282.77 0-512-229.23-512-512s229.23-512 512-512c282.77 0 512 229.23 512 512s-229.23 512-512 512zM909.855 448c-1.025-89.945-31.99-172.463-83.371-238.263l-551.873 555.885c64.926 50.724 147.445 81.689 237.156 82.712 220.064-0.467 398.091-178.783 398.091-398.679 0-0.582-0.001-1.164-0.004-1.745zM114.145 448c1.025 89.945 31.99 172.463 83.371 238.263l554.354-555.885c-64.926-50.724-147.445-81.689-237.156-82.712-0.725-0.004-1.308-0.006-1.891-0.006-220.186 0-398.682 178.496-398.682 398.682 0 0.583 0.001 1.166 0.004 1.748z" />
<glyph unicode="&#xe90e;" glyph-name="icon_status_trial" horiz-adv-x="1327" d="M1146.88 960l181.76-163.84-779.52-860.16-180.48 163.84-368.64 331.52 163.84 181.76 372.48-331.52z" />
<glyph unicode="&#xe90f;" glyph-name="myaccount3" horiz-adv-x="5793" d="M361.683 500.887l263.529 454.295h98.153v-758.965h-139.505v422.852l-173.628-298.165h-97.129l-173.598 298.165v-422.852h-139.505v758.965h98.153l263.529-454.295zM902.114-64l138.481 313.344-224.256 472.727h147.757l146.733-315.543 135.409 315.543h141.583l-345.148-786.071h-140.559zM1635.81 196.216l310.001 758.965h98.153l310.001-758.965h-145.709l-68.216 168.056h-290.364l-68.216-168.056h-145.649zM1902.441 494.381h183.928l-91.979 224.437-91.949-224.437zM2881.054 303.526c-29.636-41.171-63.036-71.168-100.232-89.961s-79.571-28.22-127.127-28.22c-38.581 0-74.391 7.048-107.46 21.143s-61.5 33.611-85.263 58.549-42.376 53.82-55.808 86.739c-13.432 32.888-20.149 68.457-20.149 106.797 0 38.31 6.897 74.089 20.691 107.339 13.764 33.25 32.708 62.344 56.832 87.281 24.094 24.937 52.525 44.454 85.263 58.549 32.708 14.095 68.367 21.143 106.948 21.143 43.4 0 83.516-9.577 120.38-28.732s67.012-44.634 90.413-76.439l-95.081-87.823c-13.794 18.793-30.479 33.973-50.116 45.538s-41.502 17.348-65.626 17.348c-19.305 0-37.195-3.795-53.73-11.384s-30.84-17.89-42.888-30.901c-12.077-13.011-21.534-28.19-28.431-45.538s-10.33-36.141-10.33-56.38c0-20.962 3.433-40.117 10.33-57.464s16.354-32.346 28.431-44.996c12.047-12.649 26.504-22.588 43.4-29.816 16.866-7.228 35.659-10.812 56.32-10.812 27.558 0 51.652 7.228 72.312 21.715 20.691 14.426 36.503 30.359 47.556 47.706l103.364-81.378zM3439.044 303.526c-29.606-41.171-63.036-71.168-100.232-89.961-37.165-18.793-79.571-28.22-127.127-28.22-38.581 0-74.391 7.048-107.46 21.143s-61.47 33.611-85.233 58.549-42.345 53.82-55.808 86.739c-13.432 32.888-20.149 68.457-20.149 106.797 0 38.31 6.897 74.089 20.661 107.339s32.708 62.344 56.862 87.281c24.094 24.937 52.495 44.454 85.263 58.549 32.708 14.095 68.367 21.143 106.948 21.143 43.4 0 83.516-9.577 120.38-28.732s67.012-44.634 90.443-76.439l-95.081-87.823c-13.794 18.793-30.509 33.973-50.116 45.538s-41.502 17.348-65.626 17.348c-19.305 0-37.195-3.795-53.73-11.384-16.565-7.59-30.84-17.89-42.888-30.901-12.077-13.011-21.564-28.19-28.431-45.538s-10.33-36.141-10.33-56.38c0-20.962 3.433-40.117 10.33-57.464s16.354-32.346 28.431-44.996c12.017-12.649 26.504-22.588 43.369-29.816s35.659-10.812 56.35-10.812c27.528 0 51.652 7.228 72.282 21.715 20.721 14.426 36.533 30.359 47.556 47.706l103.334-81.378zM3501.056 458.601c0 37.587 6.716 73.186 20.179 106.797 13.402 33.611 31.985 62.705 55.778 87.281s52.043 44.092 84.751 58.549c32.708 14.426 68.006 21.685 105.924 21.685 37.888 0 73.216-7.228 105.924-21.685s60.958-33.973 84.751-58.549c23.763-24.576 42.345-53.67 55.778-87.281 13.463-33.611 20.179-69.21 20.179-106.797 0-38.31-6.716-73.909-20.179-106.797-13.402-32.919-31.985-61.801-55.778-86.739s-52.073-44.484-84.751-58.549-68.036-21.143-105.924-21.143c-37.918 0-73.216 7.048-105.924 21.143-32.738 14.095-60.988 33.611-84.751 58.549s-42.345 53.82-55.778 86.739c-13.493 32.858-20.179 68.457-20.179 106.797zM3635.411 458.601c0-19.516 3.223-37.948 9.818-55.296 6.536-17.348 15.48-32.527 26.865-45.538s25.148-23.311 41.321-30.901 34.304-11.384 54.272-11.384c19.275 0 37.195 3.795 53.73 11.384s30.479 17.92 41.864 30.901 20.329 28.19 26.865 45.538c6.566 17.348 9.818 35.78 9.818 55.296s-3.253 38.129-9.818 55.838c-6.536 17.709-15.48 33.069-26.865 46.080s-25.329 23.311-41.864 30.901-34.485 11.384-53.73 11.384c-19.968 0-38.099-3.795-54.272-11.384s-29.937-17.89-41.321-30.901c-11.384-13.011-20.329-28.371-26.865-46.080-6.596-17.739-9.818-36.322-9.818-55.838zM4623.269 722.071v-525.854h-129.175v42.255c-19.998-18.763-41.502-32.346-64.602-40.659-23.070-8.282-46.682-12.469-70.776-12.469-35.147 0-67.343 7.77-96.648 23.311s-53.88 35.93-73.879 61.259c-15.812 20.932-28.25 45.357-37.165 73.186-8.975 27.829-13.432 61.259-13.432 100.292v278.679h134.325v-284.070c0-23.853 2.229-42.466 6.716-55.838s10.541-24.757 18.131-34.153c10.33-12.288 22.197-20.781 35.659-25.48 13.402-4.698 26.684-7.048 39.755-7.048 14.456 0 27.738 2.168 39.785 6.505 12.017 4.337 23.1 9.758 33.099 16.264 9.939 6.536 18.583 13.553 25.811 21.143s13.222 14.607 18.071 21.143v341.534h134.325zM4778.285 196.216v525.854h129.175v-42.285c19.305 16.625 40.659 29.636 64.060 39.032s49.242 14.095 77.523 14.095c35.117 0 67.644-7.59 97.641-22.769 29.937-15.179 55.296-35.78 75.927-61.801 16.535-20.992 29.304-45.538 38.249-73.728s13.432-65.054 13.432-110.592v-267.806h-134.355v278.648c0 26.022-2.56 46.441-7.74 61.259s-12.589 27.256-22.227 37.406c-18.583 19.516-43.761 29.274-75.415 29.274-14.456 0-28.1-2.168-40.809-6.505-12.77-4.337-24.305-9.758-34.635-16.264-10.3-6.505-19.456-13.553-27.347-21.143-7.951-7.59-14.336-14.637-19.125-21.143v-341.534h-134.355zM5775.51 196.216c-9.005-3.614-21.896-6.325-38.761-8.162-16.896-1.777-31.895-2.711-44.936-2.711-40.689 0-75.475 6.716-104.388 20.058-28.943 13.372-52.043 31.985-69.271 55.838-13.071 18.071-22.528 39.394-28.401 63.97-5.843 24.546-8.764 55.657-8.764 93.244v184.32h-139.535v119.296h139.535v146.372h134.355v-146.372h165.316v-119.266h-165.316v-200.584c0-16.625 1.355-29.997 4.126-40.117 2.771-10.15 6.897-18.793 12.408-26.022 6.897-7.951 15.812-14.276 26.865-18.944 11.023-4.728 24.787-7.048 41.321-7.048 9.638 0 19.998 0.542 30.991 1.626 11.023 1.084 18.944 2.319 23.763 3.795l20.691-119.296z" />
<glyph unicode="&#xe910;" glyph-name="edc37a4b9bdb524af84899c1af9d616c" d="M1013.76 8.909l-438.989 439.091 438.989 438.989-62.669 62.771-439.091-439.091-438.989 439.091-62.771-62.771 439.091-438.989-439.091-439.091 62.771-62.669 438.989 438.989 439.091-438.989 62.669 62.669z" />
<glyph unicode="&#xe911;" glyph-name="icon_alert_reversed" d="M962.56 171.52l-363.52 634.88c-40.96 66.56-138.24 66.56-168.96 0l-363.52-634.88c-40.96-66.56 10.24-148.48 87.040-148.48h716.8c81.92 0 128 81.92 92.16 148.48zM558.080 115.2c-10.24-10.24-30.72-15.36-40.96-15.36-15.36 0-30.72 5.12-46.080 15.36-10.24 10.24-15.36 30.72-15.36 46.080s5.12 30.72 15.36 46.080c10.24 10.24 30.72 15.36 46.080 15.36s35.84-5.12 46.080-15.36c10.24-10.24 15.36-30.72 15.36-46.080 0-25.6-5.12-40.96-20.48-46.080zM573.44 570.88l-15.36-199.68c0-20.48-5.12-40.96-10.24-56.32-10.24-15.36-20.48-20.48-35.84-20.48s-20.48 5.12-30.72 15.36c-5.12 10.24-10.24 30.72-10.24 56.32l-15.36 199.68c0 40.96-5.12 61.44-5.12 81.92s5.12 40.96 15.36 51.2c15.36 15.36 30.72 20.48 46.080 20.48 20.48 0 40.96-5.12 46.080-20.48s10.24-40.96 10.24-66.56c10.24-25.6 10.24-46.080 5.12-61.44z" />
</font>
</defs>
</svg>
